<?xml version="1.0" encoding="UTF-8" standalone="no"?>
<svg
   width="60"
   height="60"
   version="1.1"
   id="svg7"
   sodipodi:docname="quad-grid.svg"
   inkscape:version="1.1.2 (0a00cf5339, 2022-02-04)"
   xmlns:inkscape="http://www.inkscape.org/namespaces/inkscape"
   xmlns:sodipodi="http://sodipodi.sourceforge.net/DTD/sodipodi-0.dtd"
   xmlns="http://www.w3.org/2000/svg"
   xmlns:svg="http://www.w3.org/2000/svg">
  <sodipodi:namedview
     id="namedview9"
     pagecolor="#ffffff"
     bordercolor="#666666"
     borderopacity="1.0"
     inkscape:pageshadow="2"
     inkscape:pageopacity="0.0"
     inkscape:pagecheckerboard="0"
     showgrid="false"
     width="60px"
     inkscape:zoom="11.359375"
     inkscape:cx="25.397524"
     inkscape:cy="25.089409"
     inkscape:window-width="1384"
     inkscape:window-height="870"
     inkscape:window-x="864"
     inkscape:window-y="181"
     inkscape:window-maximized="0"
     inkscape:current-layer="svg7" />
  <defs
     id="defs3">
    <style
       id="current-color-scheme"
       type="text/css">
   .ColorScheme-Text { color:#565656; } .ColorScheme-Highlight { color:#4285f4; }
  </style>
  </defs>
  <path
     style="fill:#cccccc;stroke-width:4.16667;fill-opacity:1"
     class="ColorScheme-Text"
     d="M 9.1666667,34.166667 H 21.666667 c 0,0 4.166666,0 4.166666,4.166666 v 12.5 c 0,0 0,4.166667 -4.166666,4.166667 H 9.1666667 C 9.1666667,55 5,55 5,50.833333 v -12.5 c 0,0 0,-4.166666 4.1666667,-4.166666 z m 29.1666663,0 h 12.5 c 0,0 4.166667,0 4.166667,4.166666 v 12.5 C 55,50.833333 55,55 50.833333,55 h -12.5 c 0,0 -4.166666,0 -4.166666,-4.166667 v -12.5 c 0,0 0,-4.166666 4.166666,-4.166666 z M 38.333333,5 h 12.5 C 50.833333,5 55,5 55,9.1666667 V 21.666667 c 0,0 0,4.166666 -4.166667,4.166666 h -12.5 c 0,0 -4.166666,0 -4.166666,-4.166666 V 9.1666667 c 0,0 0,-4.1666667 4.166666,-4.1666667 z M 9.1666667,5 H 21.666667 c 0,0 4.166666,0 4.166666,4.1666667 V 21.666667 c 0,0 0,4.166666 -4.166666,4.166666 H 9.1666667 c 0,0 -4.1666667,0 -4.1666667,-4.166666 V 9.1666667 C 5,9.1666667 5,5 9.1666667,5 Z"
     id="path5" />
</svg>
