<?xml version="1.0" encoding="UTF-8" standalone="no"?>
<!-- Created with Inkscape (http://www.inkscape.org/) -->

<svg
   xmlns:dc="http://purl.org/dc/elements/1.1/"
   xmlns:cc="http://creativecommons.org/ns#"
   xmlns:rdf="http://www.w3.org/1999/02/22-rdf-syntax-ns#"
   xmlns:svg="http://www.w3.org/2000/svg"
   xmlns="http://www.w3.org/2000/svg"
   xmlns:sodipodi="http://sodipodi.sourceforge.net/DTD/sodipodi-0.dtd"
   xmlns:inkscape="http://www.inkscape.org/namespaces/inkscape"
   id="svg7384"
   height="64"
   width="64"
   version="1.1"
   sodipodi:docname="round-symbolic.svg"
   inkscape:version="0.92.5 (2060ec1f9f, 2020-04-08)">
  <defs
     id="defs10" />
  <sodipodi:namedview
     pagecolor="#ffffff"
     bordercolor="#666666"
     borderopacity="1"
     objecttolerance="10"
     gridtolerance="10"
     guidetolerance="10"
     inkscape:pageopacity="0"
     inkscape:pageshadow="2"
     inkscape:window-width="1920"
     inkscape:window-height="999"
     id="namedview8"
     showgrid="false"
     inkscape:zoom="3.6875"
     inkscape:cx="-88.375484"
     inkscape:cy="5.6405702"
     inkscape:window-x="0"
     inkscape:window-y="0"
     inkscape:window-maximized="1"
     inkscape:current-layer="svg7384" />
  <metadata
     id="metadata90">
    <rdf:RDF>
      <cc:Work
         rdf:about="">
        <dc:format>image/svg+xml</dc:format>
        <dc:type
           rdf:resource="http://purl.org/dc/dcmitype/StillImage" />
        <dc:title>Gnome Symbolic Icon Theme</dc:title>
      </cc:Work>
    </rdf:RDF>
  </metadata>
  <title
     id="title9167">Gnome Symbolic Icon Theme</title>
  <g
     id="layer9"
     transform="matrix(4.4285714,0,0,4.4285714,-1690.5814,-1496.1228)">
    <path
       id="path9555"
       style="color:#bebebe;text-indent:0pt;text-transform:none;fill:#bebebe"
       d="m 389,342.02 c -1.6459,0 -2.9825,1.3366 -2.9825,2.9825 0,1.6459 1.3366,2.9825 2.9825,2.9825 1.6459,0 2.9825,-1.3366 2.9825,-2.9825 0,-1.6459 -1.3366,-2.9825 -2.9825,-2.9825 z"
       inkscape:connector-curvature="0" />
    <path
       id="path9557"
       style="color:#bebebe;text-indent:0pt;text-transform:none;fill:#bebebe"
       d="m 388.97,338.06 c -3.8578,0 -7,3.1422 -7,7 0,3.8578 3.1422,7 7,7 3.8578,0 7,-3.1422 7,-7 0,-3.8578 -3.1422,-7 -7,-7 z m 0,1 c 3.3212,0 6.0312,2.6788 6.0312,6 0,3.3212 -2.7101,6 -6.0312,6 -3.3212,0 -6,-2.6788 -6,-6 0,-3.3212 2.6788,-6 6,-6 z"
       inkscape:connector-curvature="0" />
  </g>
</svg>
